<svg width="1440" height="1024" version="1.1" id="svg73018" sodipodi:docname="backgroundpermitsgroups.svg" inkscape:version="1.2.2 (732a01da63, 2022-12-09)" xmlns:inkscape="http://www.inkscape.org/namespaces/inkscape" xmlns:sodipodi="http://sodipodi.sourceforge.net/DTD/sodipodi-0.dtd" xmlns="http://www.w3.org/2000/svg" xmlns:svg="http://www.w3.org/2000/svg">
<defs id="defs73022" /> <sodipodi:namedview id="namedview73020"
pagecolor="#505050"
bordercolor="#eeeeee"
borderopacity="1"
inkscape:showpageshadow="0"
inkscape:pageopacity="0"
inkscape:pagecheckerboard="0"
inkscape:deskcolor="#505050"
showgrid="false"
inkscape:zoom="0.75585937" inkscape:cx="805.70543" inkscape:cy="520.59948" inkscape:window-width="2400" inkscape:window-height="1261" inkscape:window-x="2391" inkscape:window-y="-9" inkscape:window-maximized="1" inkscape:current-layer="svg73018" />
<g id="mexico">
<path style="fill:#afe1d8;stroke:none" d="m 141,470 c -1.353,0.859 -1.355,0.823 -3,1 v 4 h -4 c -0.188,6.493 -2.41,12.363 -1.946,19 0.291,4.163 2.308,7.89 2.946,12 -2.022,-1.74 -3.464,-3.175 -6,-4 1.808,12.161 2,24.682 2,37 3.822,-1.493 6.827,-2.878 11,-3 v -2 h -4 c 3.071,-1.177 7.94,-1.813 9.972,-4.649 1.551,-2.163 1.03,-5.565 1.738,-8.065 3.012,-10.635 2.291,-22.3 2.29,-33.286 0,-5.507 0.508,-10.271 -5,-13 1.296,-1.594 1.535,-2.018 2,-4 -2.904,0.123 -5.213,-0.17 -8,-1 z" id="path55328" />
<path
style="fill:#12323e;stroke:none"
                d="m 109,498 v 9 c 1.256,-2.994 1.256,-6.006 0,-9 z"
                id="path56608" />
            <path
                style="fill:#348982;stroke:none"
                d="m 134,545 c -2.019,3.524 -3.003,5.985 -2,10 8.582,-1.569 17.284,2.339 25.985,3.05 6.006,0.491 9.679,2.455 13.015,-4.05 -5.925,-1.48 -11.872,-3.772 -17.961,-4.483 C 145.374,548.622 140.316,551.346 134,545 Z"
                id="path58738" />
            <path
            style="fill:#a3dcd3;stroke:none"
                d="m 84,404 c -0.6385,5.052 -1,9.899 -1,15 h 3 v 4 c 1.1939,-2.096 0.3454,-3.544 0.7222,-5.889 C 86.9635,415.609 88.3603,414.327 89,413 h -4 v -8 c 3.0828,6.676 7.5976,9.785 15,10 0.683,2.525 1.929,4.618 3,7 h 15 c 1.814,5.465 8.155,4 13,4 v 7 c 3.472,-2.492 4.461,-7.455 7,-11 -10.893,-1.715 -21.587,-4.1 -31.83,-8.289 C 98.1336,410.424 92.9048,405.133 84,404 Z"
                id="path52468" />
                <path
                style="fill:#5db2b4;stroke:none"
                d="m 79,411 c -0.0846,10.216 -3,19.691 -3,30 0.7789,-1.769 0.9124,-3.036 1,-5 h 2 c 0.0309,3.735 0.533,7.305 1,11 5.3853,-1.574 5.9546,-12.044 7,-17 -2.6437,1.864 -2.8272,3.83 -3,7 -1.432,-4.23 -2.1347,-8.514 -1.9599,-13 0.2147,-5.51 2.13,-9.466 -3.0401,-13 z"
                id="path52840" />
                <path
                style="fill:#75c7c5;stroke:none"
                d="m 82,419 c 0,6.096 0.5222,11.946 1,18 2.0577,-4.13 3.8595,-8.348 4,-13 l -4,1 c -0.0472,-2.253 -0.1258,-3.948 -1,-6 z"
                id="path53262" />
                <path
                style="fill:#82d0cb;stroke:none"
                d="m 83,419 v 6 l 4,-1 -1,-5 z"
                id="path53264" />
                <path
                   style="fill:#5babae;stroke:none"
                   d="m 90,421 c -1.7425,1.111 -2.1193,1.27 -3,3 l 3,-1 c 1.5389,5.616 4.931,8.767 5,15 2.2657,-1.144 3.4772,-1.306 6,-1 0.638,-3.12 1.725,-4.793 4,-7 l -12,-7 c -1.467,1.06 -1.8045,-0.547 -3,-2 z"
                   id="path53384" />
                <path
                   style="fill:#396a6a;stroke:none"
                   d="m 110,437 -1,7 c 1.663,-2.435 2.078,-4.227 1,-7 z"
                   id="path54008" />
                <path
                   style="fill:#acd6c8;stroke:none"
                   d="m 95,440 -2,14 c 2.1322,2.709 2.5585,5.599 3,9 2.3982,-1.027 4.416,-1.678 7,-2 -2.076,-5.695 -2,-11.007 -2,-17 l -5,2 1,-6 z"
                   id="path54106" />
                <path
                   style="fill:#a4dbd3;stroke:none"
                   d="m 111,443 c -0.262,2.428 -0.262,4.572 0,7 l 3,-2 c 0.482,2.364 0.636,2.518 3,3 -0.613,-1.661 -1.043,-2.483 -2,-4 l 7,3 c 2.004,-2.876 3.867,-2.056 7,-1 -3.976,-5.728 -11.612,-6.789 -18,-6 z"
                   id="path54176" />
                <path
                   style="fill:#afe2d3;stroke:none"
                   d="m 110,447 c 0,7.512 -1.234,22.54 7.479,26.232 4.922,2.085 12.254,0.768 17.521,0.768 -0.021,-4.954 -2.118,-8.413 -2.889,-13.028 -0.54,-3.23 0.499,-6.735 -1.222,-9.75 -1.927,-3.374 -7.824,-6.193 -8.889,-1.222 -2.36,-1.313 -4.391,-2.341 -7,-3 l 2,4 c -2.124,-0.899 -2.101,-0.876 -3,-3 -1.314,0.768 -1.232,0.686 -2,2 z"
                   id="path54360" />
                <path
                   style="fill:#a0ddcf;stroke:none"
                   d="m 132,453 c 0,7.73 2.842,14.396 3,22 h 3 v -4 c 2.17,0.542 1.902,0.84 3,-1 2.867,1.092 4.947,1.305 8,1 -0.334,-2.512 -1.146,-4.62 -2,-7 -4.189,-1.26 -4.788,-4.605 -8,-7 l 3,-2 c -1.139,-1.015 -1.612,-1.309 -3,-2 v 2 c -2.43,-1.182 -4.313,-1.73 -7,-2 z"
                   id="path54620" />
                <path
                   style="fill:#c2e3d8;stroke:none"
                   d="m 96,468 c 2.8417,-0.138 3.8793,0.118 6,2 l 4,-2 -2,-7 c -5.2563,0.171 -7.5859,1.572 -8,7 z"
                   id="path54970" />
                <path
                   style="fill:#cfeee9;stroke:none"
                   d="m 95,474 7,-4 v -2 c -4.9206,-0.825 -6.2529,1.352 -7,6 z"
                   id="path55204" />
                <path
                   style="fill:#86bcb4;stroke:none"
                   d="m 104,469 c -2.275,3.82 -5.6997,4.723 -10,5 1.5061,0.683 2.3148,0.826 4,1 v 3 h 6 c 1.149,-3.48 3.18,-6.379 0,-9 z"
                   id="path55304" />
                <path
                   style="fill:#153f39;stroke:none"
                   d="m 113,471 c 0.035,2.365 0.045,3.916 -1,6 1.663,2.597 2.996,5.082 4,8 3.137,-4.798 0.331,-10.006 -3,-14 z"
                   id="path55370" />
                <path
                   style="fill:#93d7ca;stroke:none"
                   d="m 149,471 c -0.684,1.58 -0.805,1.777 -2,3 3.064,3.695 4.842,6.052 5,11 h 3 c 0.004,5.385 0.924,10.636 0.996,16 0.055,4.08 -0.481,8.347 3.004,11 -1.347,4.558 -1,9.27 -1,14 h 3 c 0,2.607 -0.573,6.171 0.603,8.582 1.711,3.507 9.733,6.84 13.397,7.418 -3.927,-5.372 -10.321,-11.79 -12.33,-18.209 -0.833,-2.66 -0.27,-5.994 -0.67,-8.791 1.307,1.685 2.254,2.846 4,4 l -2,-11 c -1.3,0.65 -1,0.147 -1,2 -1.338,-3.951 -1.414,-8.017 -2.491,-12 -1.899,-7.023 -4.488,-12.534 -4.509,-20 -3.251,-1.687 -4.684,-4.26 -7,-7 z"
                   id="path55372" />
                <path
                   style="fill:#69afa5;stroke:none"
                   d="m 105,474 -1,4 h -6 l 2,8 c 1.733,-1.222 2.151,-2.009 3,-4 l 1,4 c 1.419,-3.374 2.075,-8.503 1,-12 z"
                   id="path55504" />
                <path
                   style="fill:#a8d9d3;stroke:none"
                   d="m 122,484 c -0.986,1.479 -1,1.203 -1,3 4.127,4.372 3,10.321 3,16 1.255,-1.925 2.3,-3.452 4,-5 v 4 c 2.778,0.83 4.542,2.548 7,4 -0.406,-4.519 -2.633,-8.499 -2.946,-13 -0.39,-5.611 1.598,-10.52 1.946,-16 -2.085,0 -1.724,0.138 -2,-2 -4.321,0.089 -18.992,3.177 -10,9 z"
                   id="path55560" />
                <path
                   style="fill:#355a62;stroke:none"
                   d="m 107,481 v 17 c 1.883,-4.486 1.883,-12.513 0,-17 z"
                   id="path55782" />
                <path
                   style="fill:#609d9e;stroke:none"
                   d="m 103,482 c -0.97,1.6 -1.72,2.663 -3,4 v 2 c 1.267,1.543 1.489,2.048 2,4 h 3 c -0.074,-3.575 -0.308,-6.818 -2,-10 z"
                   id="path55826" />
                <path
                   style="fill:#678c8a;stroke:none"
                   d="m 117,483 1,1 z"
                   id="path55896" />
                <path
                   style="fill:#9dddcf;stroke:none"
                   d="m 152,485 c 0,11.635 0.947,24.165 -2.29,35.424 -0.824,2.868 -0.199,6.587 -2.313,8.927 -2.287,2.529 -6.216,3.172 -9.397,3.649 1.506,0.683 2.315,0.826 4,1 v 2 c -2.875,0.032 -5.074,-0.208 -7,2 14.739,-3.507 24.074,8.845 38,9 -1.312,-1.459 -2.231,-2.157 -4,-3 l 3,-2 c -2.752,-2.961 -7.842,-4.198 -9.972,-7.418 -1.551,-2.344 -1.026,-5.914 -1.028,-8.582 h -3 c 0,-4.761 -0.108,-9.345 1,-14 -5.038,-5.794 -3.979,-19.485 -4,-27 z"
                   id="path55970" />
                <path
                   style="fill:#75ceba;stroke:none"
                   d="m 156,485 c 1.966,8.576 5.299,16.112 6,25 1.3,-0.65 1,-0.147 1,-2 l 4,11 c 3.014,-5.253 8.176,-10.969 9,-17 l -6,3 c 1.297,-2.035 2.333,-3.695 3,-6 -2.124,0.899 -2.101,0.876 -3,3 -3.285,-5.012 -4.387,-9.5 -11,-10 -0.166,-2.419 -0.437,-4.644 -1,-7 z"
                   id="path55972" />
                <path
                   style="fill:#80a8a4;stroke:none"
                   d="m 116,486 c 0.262,2.396 3.593,12.554 5,6 0.562,1.801 0.824,3.122 1,5 2.235,-5.491 -0.851,-9.297 -6,-11 z"
                   id="path56042" />
                <path
                   style="fill:#426159;stroke:none"
                   d="m 114,487 v 4 c 0.71,-1.759 0.71,-2.241 0,-4 z"
                   id="path56082" />
                <path
                   style="fill:#6bc7b3;stroke:none"
                   d="m 158,487 1,5 c 6.111,0.932 7.27,5.06 10,10 l 4,-3 -3,6 7,-2 c 1.815,-10.435 -5.939,-8.864 -11,-15 -0.685,1.248 -0.749,1.548 -1,3 z"
                   id="path56086" />
                <path
                   style="fill:#769d9d;stroke:none"
                   d="m 116,489 c 0.117,2.73 0.499,5.314 1,8 3.172,0.602 4.122,1.947 5,5 1.268,-3.249 0.271,-6.567 0,-10 -0.685,1.248 -0.749,1.548 -1,3 -2.092,-1.799 -3.406,-3.759 -5,-6 z"
                   id="path56214" />
                <path
                   style="fill:#417b7e;stroke:none"
                   d="m 103,502 c 1.627,-2.577 2.598,-4.976 3,-8 -4.068,1.636 -3.91,4.016 -3,8 z"
                   id="path56446" />
                <path
                   style="fill:#1d434e;stroke:none"
                   d="m 107,498 c -0.751,4.837 -2.856,9.035 -3,14 h 4 c 0.873,-4.7 1,-9.23 1,-14 z"
                   id="path56606" />
                <path
                   style="fill:#9bd0c6;stroke:none"
                   d="m 126,498 c -2.608,6.962 -2.056,13.853 -3.26,21 -0.632,3.751 -2.217,7.197 -2.74,11 3.805,-2.776 6.128,-4.72 11,-4 -0.199,-9.638 -1.593,-18.605 -3,-28 z"
                   id="path56610" />
                <path
                   style="fill:#155c59;stroke:none"
                   d="m 180,499 -1,7 c 1.827,-2.412 2.15,-4.169 1,-7 z"
                   id="path56682" />
                <path
                   style="fill:#164650;stroke:none"
                   d="m 178,506 -3,10 c 3.357,-2.378 4.384,-6.039 5,-10 z"
                   id="path57004" />
                <path
                   style="fill:#8cd2c0;stroke:none"
                   d="m 162,515 c 0.133,2.803 -0.335,6.07 0.338,8.791 0.821,3.32 3.999,7.111 5.662,10.209 1.567,-5.095 -0.024,-12.743 -1,-18 l -2,3 c -0.97,-1.6 -1.72,-2.663 -3,-4 z"
                   id="path57344" />
                <path
                   style="fill:#225357;stroke:none"
                   d="m 129,530 -4,1 c -1.26,3.1 -2.628,5.624 -3,9 h -4 c 0.426,2.469 1.132,4.645 2,7 3.107,-3.385 5.37,-7.077 9,-10 v 6 c 1.591,-3.791 1.591,-9.209 0,-13 z"
                   id="path58022" />
                <path
                   style="fill:#b2e1c4;stroke:none"
                   d="m 211,543 3,-2 c 0.334,2.512 1.146,4.62 2,7 5.58,-0.618 10.724,-3.791 13,-9 -4.8,-1.419 -18.125,-3.28 -18,4 z"
                   id="path58418" />
                <path
                   style="fill:#8fc3b5;stroke:none"
                   d="m 229,539 -1,1 v 2 c 2.364,-0.482 2.518,-0.636 3,-3 z"
                   id="path58454" />
                <path
                   style="fill:#a1d8be;stroke:none"
                   d="m 209,540 -3,7 c 1.457,1.103 1.897,1.543 3,3 1.314,-0.768 1.232,-0.686 2,-2 2.382,1.678 4.087,1.916 7,2 -1.333,-3.104 -3.218,-5.679 -4,-9 -1.396,0.661 -1.814,0.964 -3,2 -0.691,-1.389 -0.984,-1.861 -2,-3 z"
                   id="path58496" />
                <path
                   style="fill:#256660;stroke:none"
                   d="m 231,541 c -5.849,5.268 -13.45,11.937 -17,19 4.295,-2.394 7.595,-5.46 11.424,-8.466 3.966,-3.113 9.38,-4.848 5.576,-10.534 z"
                   id="path58552" />
                <path
                   style="fill:#5a919b;stroke:none"
                   d="m 131,543 c -0.596,4.716 -0.999,9.237 -1,14 1.731,-4.014 2.703,-9.902 1,-14 z"
                   id="path58622" />
                <path
                   style="fill:#517a74;stroke:none"
                   d="m 207,543 1,1 z"
                   id="path58630" />
                <path
                   style="fill:#a4d0c6;stroke:none"
                   d="m 174,547 c 2.723,-0.686 5.166,-0.864 7,-3 -2.81,0.559 -5.145,0.791 -7,3 z"
                   id="path58682" />
                <path
                   style="fill:#619189;stroke:none"
                   d="m 205,545 v 3 h 2 v -3 z"
                   id="path58740" />
                <path
                   style="fill:#75a59b;stroke:none"
                   d="m 173,547 c 1.506,0.683 2.315,0.826 4,1 l -1,3 c 2.994,-0.954 3.787,-2.11 5,-5 -2.784,0.058 -5.291,0.352 -8,1 z"
                   id="path58796" />
                <path
                   style="fill:#5e9e93;stroke:none"
                   d="m 170,547 -2,6 c 4.131,1.209 7.129,0.862 11,-1 -1.248,-0.685 -1.548,-0.749 -3,-1 0.986,-1.479 1,-1.203 1,-3 z"
                   id="path58828" />
                <path
                   style="fill:#5b9081;stroke:none"
                   d="m 185,547 v 4 c -3.457,-0.642 -5.759,0.783 -9,2 l 7,2 4,-2 c -0.468,-2.202 -0.937,-4.031 -2,-6 z"
                   id="path58830" />
                <path
                   style="fill:#7ebbab;stroke:none"
                   d="m 205,548 c 0.604,2.012 1.236,2.323 0,4 l 3,1 c 1.624,-0.865 2.108,-0.919 4,-1 v -4 l -3,2 c 0,-1.797 -0.014,-1.521 -1,-3 z"
                   id="path58834" />
                <path
                   style="fill:#9bd0c9;stroke:none"
                   d="m 186,554 c 5.983,-1.583 11.864,-2.225 18,-3 -4.742,-1.986 -14.891,-1.311 -18,3 z"
                   id="path58966" />
                <path
                   style="fill:#a0e0cd;stroke:none"
                   d="m 190,552 -1,6 4,2 c 0.213,-7.437 8.614,-5.718 14,-7 -4.669,-3.171 -11.543,-1.004 -17,-1 z"
                   id="path59004" />
                <path
                   style="fill:#82c4c1;stroke:none"
                   d="m 185,553 v 9 h 2 c 0.485,-3.258 2.153,-5.857 3,-9 z"
                   id="path59076" />
                <path
                   style="fill:#b0ded4;stroke:none"
                   d="m 208,557 4,1 c -2.051,-6.199 -6.677,-4.268 -12,-4.019 -2.605,0.122 -6.278,-0.217 -6.995,3.098 -0.719,3.321 2.223,4.807 5.014,4.879 4.045,0.105 7.962,-1.46 9.981,-4.958 z"
                   id="path59078" />
                <path
                   style="fill:#173943;stroke:none"
                   d="m 227,554 c -3.57,5.443 -6.358,7.922 -13,8 v 2 h 9 c 1.621,-3.373 4.895,-6.126 4,-10 z"
                   id="path59112" />
                <path
                   style="fill:#18555b;stroke:none"
                   d="m 174,555 c -2.897,4.223 -6.069,8.238 -8,13 l -36,-7 c -0.722,2.418 -0.948,4.472 -1,7 0.683,-1.506 0.826,-2.315 1,-4 1.985,1.277 2.85,1.981 4,4 7.022,0.322 15.171,2.584 22,4.42 2.997,0.806 6.643,2.951 9.815,1.886 4.646,-1.559 9.794,-12.107 12.185,-16.306 2.217,1.163 3.394,2.086 5,4 2.31,-5.971 -4.722,-6.193 -9,-7 z"
                   id="path59178" />
                <path
                   style="fill:#226f6f;stroke:none"
                   d="m 131,557 c 1.494,8.956 17.95,6.635 24.91,8.221 3.469,0.79 6.52,2.284 10.09,2.779 1.313,-2.36 2.341,-4.391 3,-7 -13.089,1.384 -25.005,-4 -38,-4 z"
                   id="path59226" />
                <path
                   style="fill:#86d3c9;stroke:none"
                   d="m 187,557 v 7 c 3.455,-0.01 6.632,-0.198 10,-1 -3.038,-2.498 -6.269,-4.737 -10,-6 z"
                   id="path59228" />
                <path
                   style="fill:#0f2c3a;stroke:none"
                   d="m 181,566 c -1.957,1.532 -4.289,1.888 -6.296,3.313 -3.244,2.306 -6.596,7.318 -8.704,10.687 -6.66,-1.738 -15.059,-1.981 -22,-2 4.581,2.336 15.818,8.273 20.83,6.382 3.473,-1.31 5.717,-5.171 8.595,-7.385 2.61,-2.008 5.445,-2.369 8.575,-2.997 v 8 c 1.982,-4.724 1,-10.91 1,-16 z"
                   id="path59504" />
          </g></svg>
    